<svg id="Capa_1" enable-background="new 0 0 512.029 512.029" height="512" viewBox="0 0 512.029 512.029" width="512" xmlns="http://www.w3.org/2000/svg"><g><g><g><path d="m457.161 142.825v-118.436c0-13.449-10.94-24.389-24.389-24.389-6.54 0-12.916 2.699-17.491 7.405-.001 0-.001 0-.001.001-50.329 51.77-115.008 77.015-160.404 89.076-46.078 12.242-82.19 13.773-87.276 13.932-.168-.011-.336-.026-.507-.026h-144.623c-10.465 0-18.979 8.514-18.979 18.979v87.427c0 4.143 3.357 7.5 7.5 7.5s7.5-3.357 7.5-7.5v-87.427c0-2.193 1.785-3.979 3.979-3.979h137.123v151.702h-36.273-100.85c-2.193 0-3.979-1.785-3.979-3.979v-21.265c0-4.143-3.357-7.5-7.5-7.5s-7.5 3.357-7.5 7.5v21.265c0 10.465 8.514 18.979 18.979 18.979h17.4l38.979 189.86c3.578 17.429 19.09 30.079 36.883 30.079h75.186c10.173 0 19.688-4.527 26.104-12.422s8.903-18.133 6.824-28.091l-6.783-32.486c-3.239-15.507-17.087-26.762-32.928-26.762h-17.688c-4.356 0-8.193-3.089-9.124-7.344l-3.154-14.421c-.886-4.046-4.876-6.598-8.93-5.725-4.047.886-6.609 4.883-5.725 8.93l3.154 14.421c2.427 11.09 12.427 19.139 23.778 19.139h17.688c8.777 0 16.45 6.236 18.244 14.828l6.783 32.486c1.152 5.517-.226 11.189-3.781 15.563s-8.826 6.883-14.463 6.883h-75.186c-10.705 0-20.036-7.61-22.189-18.097l-38.359-186.84h61.625l11.85 51.998v.001l3.394 15.516c.886 4.047 4.878 6.613 8.93 5.725 4.047-.886 6.609-4.884 5.725-8.93l-1.815-8.296c29.199-7.747 43.645-26.859 50.685-42.155 1.732-3.762 3.089-7.45 4.168-10.942 14.922 2.009 33.97 5.367 55.131 10.99 45.396 12.062 110.075 37.307 160.405 89.078 4.577 4.705 10.952 7.404 17.491 7.404 13.448 0 24.389-10.94 24.389-24.389v-118.436c28.915-3.579 51.377-28.283 51.377-58.151v-.528c0-29.868-22.462-54.572-51.377-58.151zm-315.476 190.616-9.046-41.351h34.454c.171 0 .338-.014.507-.026 1.87.059 7.884.302 17.03 1.186-5.189 14.843-16.825 33.003-42.945 40.191zm300.476 44.65c0 5.177-4.212 9.389-9.389 9.389-2.513 0-4.969-1.043-6.736-2.861-52.835-54.347-120.373-80.695-167.727-93.229-38.703-10.244-70.038-13.18-83.717-14.014v-152.272c13.679-.834 45.014-3.77 83.717-14.014 47.354-12.534 114.892-38.883 167.727-93.229 1.768-1.818 4.224-2.861 6.736-2.861 5.177 0 9.389 4.212 9.389 9.389zm51.377-176.587c0 21.584-15.76 39.557-36.377 43.013v-86.554c20.617 3.456 36.377 21.429 36.377 43.013z"/><path d="m64.358 193.186h49.367c12.411 0 22.508-10.097 22.508-22.527 0-12.411-10.097-22.508-22.508-22.508h-49.367c-12.41 0-22.507 10.097-22.507 22.527.001 12.411 10.097 22.508 22.507 22.508zm0-30.036h49.367c4.14 0 7.508 3.368 7.508 7.527 0 4.14-3.368 7.508-7.508 7.508h-49.367c-4.14 0-7.507-3.368-7.507-7.527.001-4.139 3.368-7.508 7.507-7.508z"/><path d="m64.358 254.329h49.367c12.411 0 22.508-10.097 22.508-22.527 0-12.411-10.097-22.508-22.508-22.508h-49.367c-12.41 0-22.507 10.097-22.507 22.527.001 12.411 10.097 22.508 22.507 22.508zm0-30.035h49.367c4.14 0 7.508 3.368 7.508 7.527 0 4.14-3.368 7.508-7.508 7.508h-49.367c-4.14 0-7.507-3.368-7.507-7.527.001-4.14 3.368-7.508 7.507-7.508z"/></g></g></g></svg>