<?xml version="1.0" encoding="utf-8"?>
<!-- Generator: Adobe Illustrator 23.0.6, SVG Export Plug-In . SVG Version: 6.00 Build 0)  -->
<svg version="1.1" id="Capa_1" xmlns="http://www.w3.org/2000/svg" xmlns:xlink="http://www.w3.org/1999/xlink" x="0px" y="0px"
	 viewBox="0 0 512 512" style="enable-background:new 0 0 512 512;" xml:space="preserve">
<g>
	<path d="M427.5,504c-114.3,0-228.6,0-342.9,0c-19.9-8.1-24.2-14.7-24.2-36.6c0-30.7,0-61.3,0-92c0-111.5,0-223.1,0-334.6
		c0-7.6,1.3-14.7,5.9-21c4.6-6.4,11.3-9.3,18.4-11.7c114.3,0,228.6,0,342.9,0c19.9,8.1,24.2,14.7,24.2,36.6c0,30.5,0,61,0,91.5
		c0,111.7,0,223.4,0,335.1c0,7.6-1.3,14.7-5.9,21C441.2,498.7,434.5,501.6,427.5,504z M432.3,279.5c-117.8,0-235.1,0-352.6,0
		c0,2.1,0,3.8,0,5.6c0,61.8,0,123.6,0,185.5c0,11.2,2.9,14,14.1,14c108.1,0,216.3,0,324.4,0c11.2,0,14.1-2.9,14.1-14
		c0-61.8,0-123.6,0-185.5C432.3,283.4,432.3,281.7,432.3,279.5z M79.8,73.8c2.3,0,4.2,0,6.1,0c41.2,0,82.3,0,123.5,0
		c9.2,0,13.8,3.3,13.7,9.8c-0.1,6.3-4.7,9.5-13.6,9.5c-41.3,0-82.6,0-124,0c-1.9,0-3.7,0-5.4,0c0,56,0,111.2,0,166.6
		c10.4,0,20.4-0.1,30.4,0.1c3.5,0.1,6-0.9,8.5-3.5c30-30.2,60.2-60.3,90.4-90.5c6.7-6.7,11.4-6.7,18.1,0
		c6.7,6.7,13.4,13.5,21.1,21.2c1.2-1.8,2-3.4,3.3-4.7c16-16.1,32.2-32.2,48.3-48.3c8.1-8.1,12.1-8.1,20.2-0.1
		c35.7,35.7,71.5,71.4,107.2,107.2c1.3,1.3,2.7,2.5,4.5,4.3c0-51.2,0-101.6,0-152.4c-2.2,0-4.1,0-6,0c-41.3,0-82.7,0-124,0
		c-1.9,0-3.9,0-5.8-0.4c-5-1.1-7.8-4.9-7.7-9.7c0.2-4.7,3.5-8.4,8.5-9.1c1.7-0.2,3.5-0.2,5.3-0.2c41.3,0,82.7,0,124,0
		c1.9,0,3.7,0,5.9,0c0-11.2,0-21.6,0-32.1c0-11.6-2.8-14.4-14.2-14.4c-108.2,0-216.3,0-324.5,0c-1.6,0-3.2-0.1-4.8,0.1
		c-5,0.6-8.7,3.8-8.9,8.7C79.6,48.6,79.8,61,79.8,73.8z M417,259.8c-35.9-35.9-71.5-71.6-106.9-107c-15.7,15.7-31.7,31.8-47.8,47.9
		c18.9,18.9,38.1,38.3,57.5,57.4c1.2,1.2,3.7,1.6,5.6,1.6c29.2,0.1,58.4,0.1,87.6,0.1C414.4,259.8,415.8,259.8,417,259.8z
		 M292.2,259.6c-24.7-24.6-49.5-49.4-73.5-73.4c-24.2,24.2-49,49-73.4,73.4C193.8,259.6,243.2,259.6,292.2,259.6z"/>
	<path d="M255.7,312.2c8.1,0,16.1-0.1,24.2,0c7.4,0.1,11.1,3.6,11.2,10.9c0.1,16.6,0.1,33.3,0,49.9c-0.1,7.1-3.8,10.8-10.9,10.8
		c-16.6,0.1-33.3,0.1-49.9,0c-6.8-0.1-10.7-3.6-10.8-10.5c-0.2-16.9-0.3-33.9,0-50.9c0.1-6.8,4.1-10.2,10.9-10.3
		C238.9,312.1,247.3,312.2,255.7,312.2z M271.4,364.3c0-11.1,0-21.8,0-32.5c-10.9,0-21.5,0-32.2,0c0,11,0,21.7,0,32.5
		C250,364.3,260.5,364.3,271.4,364.3z"/>
	<path d="M191.4,348c0,8.1,0.1,16.1,0,24.2c-0.1,8-3.7,11.5-11.6,11.6c-16.1,0.1-32.3,0.1-48.4,0c-7.6,0-11.5-3.6-11.6-11.2
		c-0.2-16.5-0.2-32.9,0-49.4c0.1-7.6,4-11,11.7-11c16-0.1,32,0,48,0c8.5,0,11.9,3.5,12,12.1C191.5,332.2,191.4,340.1,191.4,348z
		 M139.4,331.8c0,11.1,0,21.7,0,32.3c11,0,21.7,0,32.4,0c0-10.9,0-21.5,0-32.3C160.9,331.8,150.3,331.8,139.4,331.8z"/>
	<path d="M356.8,312.2c8.1,0,16.1-0.1,24.2,0c7.1,0.1,11,3.5,11.1,10.6c0.2,16.8,0.2,33.6,0,50.4c-0.1,7.1-4,10.6-11.1,10.7
		c-16.5,0.1-32.9,0.1-49.4,0c-7.3,0-11-3.7-11.1-11.1c-0.1-16.5-0.1-32.9,0-49.4c0.1-7.6,3.7-11.1,11.5-11.2
		C340.3,312.1,348.6,312.2,356.8,312.2z M372.5,364.2c0-11,0-21.7,0-32.4c-10.9,0-21.5,0-32.2,0c0,10.9,0,21.6,0,32.4
		C351.2,364.2,361.8,364.2,372.5,364.2z"/>
	<path d="M256.2,426.5c-7.9,0-15.8,0-23.7,0c-7.5,0-12.1-3.7-12.2-9.6c-0.1-5.9,4.6-9.8,11.9-9.8c16,0,32,0,47.9,0
		c7.2,0,11.6,3.7,11.6,9.5c0.1,6-4.5,9.8-11.9,9.8C272.1,426.5,264.2,426.5,256.2,426.5z"/>
	<path d="M356.3,426.5c-7.9,0-15.8,0.1-23.7,0c-7.1-0.1-11.6-3.7-11.7-9.5c-0.1-6,4.3-9.8,11.8-9.8c16,0,32,0,47.9,0
		c7.1,0,11.6,3.7,11.7,9.5c0.1,5.9-4.5,9.8-11.9,9.9C372.4,426.5,364.4,426.5,356.3,426.5z"/>
	<path d="M255.5,465.2c-7.7,0-15.5,0-23.2,0c-7.4-0.1-12-3.9-12-9.8c0.1-5.7,4.6-9.5,11.7-9.5c16.1,0,32.3-0.1,48.4,0
		c7.1,0,11.5,3.9,11.4,9.8c-0.1,5.8-4.5,9.5-11.6,9.6C272,465.3,263.8,465.2,255.5,465.2z"/>
	<path d="M356.3,465.2c-7.9,0-15.8,0.1-23.7,0c-7.1-0.1-11.6-3.7-11.6-9.6c-0.1-6,4.4-9.8,11.8-9.8c16,0,32,0,47.9,0
		c7.1,0,11.6,3.7,11.7,9.5c0.1,5.9-4.5,9.8-11.9,9.8C372.4,465.3,364.3,465.2,356.3,465.2z"/>
	<path d="M155.7,407.1c8.1,0,16.1-0.1,24.2,0c7.2,0.1,11.4,3.7,11.4,9.7c0,5.9-4.3,9.6-11.5,9.6c-16.1,0.1-32.3,0.1-48.4,0
		c-7.1,0-11.4-3.8-11.4-9.8c0-5.9,4.3-9.5,11.5-9.6C139.6,407.1,147.6,407.1,155.7,407.1z"/>
	<path d="M155.5,465.2c-8.1,0-16.1,0.1-24.2,0c-7.1-0.1-11.4-4-11.3-9.9c0.1-5.7,4.3-9.4,11.2-9.5c16.3-0.1,32.6-0.1,48.9,0
		c7.1,0,11.3,3.8,11.2,9.8c-0.1,5.8-4.3,9.4-11.1,9.5C171.9,465.3,163.7,465.2,155.5,465.2z"/>
	<path d="M132.1,116.5c18,0,33,15.1,32.8,33c-0.1,17.8-14.9,32.6-32.7,32.7c-17.9,0.2-33-14.9-33.1-32.9
		C99.1,131.5,114.1,116.5,132.1,116.5z M132.1,162.9c7.4-0.1,13.5-6.3,13.4-13.7c-0.1-7.4-6.2-13.4-13.6-13.4
		c-7.4,0.1-13.5,6.2-13.4,13.6C118.5,156.9,124.8,163,132.1,162.9z"/>
	<path d="M131.9,40.9c4.4,0,8.7-0.1,13.1,0c6.4,0.2,10.4,4,10.4,9.7c0,5.6-4,9.5-10.5,9.6c-8.7,0.2-17.4,0.2-26.1,0
		c-6.3-0.1-10.3-4.2-10.2-9.9c0.1-5.4,4.1-9.2,10.2-9.4C123.2,40.8,127.6,40.9,131.9,40.9z"/>
	<path d="M248.3,41c2.9,0,5.8-0.3,8.7,0.1c5.1,0.6,8.7,4.5,8.7,9.4c0.1,4.8-3.3,9.2-8.5,9.5c-6.2,0.5-12.6,0.5-18.8,0
		c-5-0.4-8.6-5.1-8.3-9.7c0.2-4.8,3.9-8.7,9-9.2C242.1,40.8,245.2,41,248.3,41C248.3,41,248.3,41,248.3,41z"/>
	<path d="M316.4,41c2.9,0,5.8-0.2,8.7,0.1c5.2,0.5,8.7,4.4,8.8,9.3c0.1,4.9-3.1,9.2-8.3,9.6c-6.2,0.5-12.6,0.5-18.8,0
		c-5.2-0.4-8.4-4.7-8.3-9.6c0.1-4.9,3.6-8.7,8.8-9.3C310.2,40.8,313.3,41,316.4,41z"/>
	<path d="M383.9,60.2c-2.7,0-5.5,0.2-8.2,0c-5.3-0.6-9.1-4.7-9.1-9.6c0-4.9,3.8-9.2,9.2-9.5c5.8-0.3,11.6-0.3,17.4,0
		c5.3,0.3,9.1,4.6,9.1,9.5c0,4.7-3.6,8.9-8.7,9.5C390.3,60.4,387.1,60.1,383.9,60.2C383.9,60.2,383.9,60.2,383.9,60.2z"/>
	<path d="M256,93.1c-5.1-0.1-9.6-4.8-9.4-9.8c0.1-5.1,4.7-9.5,9.8-9.4c5.1,0.1,9.5,4.6,9.4,9.8C265.6,88.8,261,93.3,256,93.1z"/>
</g>
</svg>
