<?xml version="1.0"?>
<svg xmlns="http://www.w3.org/2000/svg" xmlns:xlink="http://www.w3.org/1999/xlink" xmlns:svgjs="http://svgjs.com/svgjs" version="1.1" width="512" height="512" x="0" y="0" viewBox="0 0 511.979 511.979" style="enable-background:new 0 0 512 512" xml:space="preserve" class=""><g><g xmlns="http://www.w3.org/2000/svg"><path d="m45.876 45v422c0 8.284 6.716 15 15 15h300c3.262 0 6.272-1.053 8.733-2.821l19.669 19.642c17.543 17.544 46.091 17.545 63.636 0 17.581-17.582 17.594-46.043-.007-63.64l-77.031-76.925v-313.256c0-8.284-6.716-15-15-15h-75v-15c0-8.284-6.716-15-15-15h-120c-8.284 0-15 6.716-15 15v15h-75c-8.285 0-15 6.716-15 15zm385.826 411.402c5.86 5.858 5.861 15.343-.001 21.206-5.849 5.847-15.363 5.846-21.217-.007l-141.737-141.539c6.595-6.523 13.729-13.558 21.359-21.062 8.2 8.188 132.616 132.435 141.596 141.402zm-265.826-426.402h90v15c0 8.271-6.729 15-15 15h-60c-8.271 0-15-6.729-15-15zm-90 30h62.58c6.192 17.458 22.865 30 42.42 30h60c19.555 0 36.228-12.542 42.42-30h62.58v268.296l-49.76-49.692c-22.656-22.655-52.771-35.653-84.798-36.598-4.138-.13-8.127 1.466-11.049 4.387-2.922 2.922-4.509 6.919-4.387 11.049 1.67 56.646 39.313 86.827 40.902 89.097.017.018.031.037.048.054.02.021.042.037.063.057l105.497 105.35h-266.516zm192.726 234.072c-7.413 7.291-14.35 14.132-20.786 20.497-9.793-11.756-16.554-25.583-19.791-40.421 14.901 3.253 28.784 10.059 40.577 19.924z" fill="#1f7dcf" data-original="#000000" style="" class=""/><path d="m120.876 150h180c8.284 0 15-6.716 15-15s-6.716-15-15-15h-180c-8.284 0-15 6.716-15 15s6.715 15 15 15z" fill="#1f7dcf" data-original="#000000" style="" class=""/><path d="m120.876 210h180c8.284 0 15-6.716 15-15s-6.716-15-15-15h-180c-8.284 0-15 6.716-15 15s6.715 15 15 15z" fill="#1f7dcf" data-original="#000000" style="" class=""/><path d="m180.876 362h-60c-8.284 0-15 6.716-15 15s6.716 15 15 15h60c8.284 0 15-6.716 15-15s-6.716-15-15-15z" fill="#1f7dcf" data-original="#000000" style="" class=""/></g></g></svg>
