<?xml version="1.0" encoding="utf-8"?>
<!-- Generator: Adobe Illustrator 23.0.6, SVG Export Plug-In . SVG Version: 6.00 Build 0)  -->
<svg version="1.1" id="Capa_1" xmlns="http://www.w3.org/2000/svg" xmlns:xlink="http://www.w3.org/1999/xlink" x="0px" y="0px"
	 viewBox="0 0 512 512" style="enable-background:new 0 0 512 512;" xml:space="preserve">
<path d="M491.4,261.2h-78.5V93.1c0-4.1-3.4-7.5-7.5-7.5s-7.5,3.4-7.5,7.5v6H96.2c-4.1,0-7.5,3.4-7.5,7.5s3.4,7.5,7.5,7.5h301.7
	v250.6c0,1.4-1.1,2.5-2.5,2.5h-373c-1.4,0-2.5-1.1-2.5-2.5V114.1h38.8c4.1,0,7.5-3.4,7.5-7.5S62.9,99,58.7,99H19.9V17.5
	c0-1.4,1.1-2.5,2.5-2.5h373c1.4,0,2.5,1.1,2.5,2.5v38.2c0,4.1,3.4,7.5,7.5,7.5s7.5-3.4,7.5-7.5V17.5C412.9,7.9,405,0,395.4,0h-373
	C12.7,0,4.9,7.9,4.9,17.5v347.2c0,9.7,7.9,17.5,17.5,17.5h76.7v112.3c0,9.7,7.9,17.5,17.5,17.5h65.3c4.1,0,7.5-3.4,7.5-7.5
	s-3.4-7.5-7.5-7.5h-65.3c-1.4,0-2.5-1.1-2.5-2.5V382.2h281.3c6.6,0,12.3-3.7,15.3-9l81.4-94.5v215.8c0,1.4-1.1,2.5-2.5,2.5H218.9
	c-4.1,0-7.5,3.4-7.5,7.5s3.4,7.5,7.5,7.5h270.7c9.7,0,17.5-7.9,17.5-17.5V276.9C507.1,268.3,500.1,261.2,491.4,261.2L491.4,261.2z
	 M474.4,276.2l-61.6,71.4v-71.4H474.4z"/>
<circle cx="60.3" cy="56.7" r="14.6"/>
<circle cx="104.8" cy="56.7" r="14.6"/>
<circle cx="149.3" cy="56.7" r="14.6"/>
<path d="M49.1,272.3c0,4.1,3.4,7.5,7.5,7.5h122.3c4.1,0,7.5-3.4,7.5-7.5s-3.4-7.5-7.5-7.5H56.6C52.5,264.8,49.1,268.2,49.1,272.3z"
	/>
<path d="M178.9,299.5H56.6c-4.1,0-7.5,3.4-7.5,7.5s3.4,7.5,7.5,7.5h122.3c4.1,0,7.5-3.4,7.5-7.5S183,299.5,178.9,299.5z"/>
<path d="M217.5,272.3c0,4.1,3.4,7.5,7.5,7.5h122.3c4.1,0,7.5-3.4,7.5-7.5s-3.4-7.5-7.5-7.5H225C220.9,264.8,217.5,268.2,217.5,272.3
	L217.5,272.3z"/>
<path d="M347.3,299.5H225c-4.1,0-7.5,3.4-7.5,7.5s3.4,7.5,7.5,7.5h122.3c4.1,0,7.5-3.4,7.5-7.5S351.5,299.5,347.3,299.5z"/>
<path d="M157.8,418.7h122.3c4.1,0,7.5-3.4,7.5-7.5s-3.4-7.5-7.5-7.5H157.8c-4.1,0-7.5,3.4-7.5,7.5S153.6,418.7,157.8,418.7
	L157.8,418.7z"/>
<path d="M157.8,453.4h122.3c4.1,0,7.5-3.4,7.5-7.5s-3.4-7.5-7.5-7.5H157.8c-4.1,0-7.5,3.4-7.5,7.5S153.6,453.4,157.8,453.4
	L157.8,453.4z"/>
<path d="M326.2,418.7h122.3c4.1,0,7.5-3.4,7.5-7.5s-3.4-7.5-7.5-7.5H326.2c-4.1,0-7.5,3.4-7.5,7.5S322.1,418.7,326.2,418.7z"/>
<path d="M326.2,453.4h122.3c4.1,0,7.5-3.4,7.5-7.5s-3.4-7.5-7.5-7.5H326.2c-4.1,0-7.5,3.4-7.5,7.5S322.1,453.4,326.2,453.4z"/>
<g>
	<path d="M57.3,159.8c0-1.4,0.6-2.6,1.9-3.7c1.2-1.1,2.9-1.6,4.9-1.6h14.8c4.7,0,8.8,0.6,12.3,1.8c3.5,1.2,6.3,2.9,8.6,5
		c2.3,2.1,3.9,4.6,5,7.5c1.1,2.9,1.6,5.9,1.6,9.3v1.2c0,2.9-0.5,5.6-1.5,8.2c-1,2.6-2.6,5-4.7,7c-2.2,2-5,3.7-8.5,4.9
		c-3.5,1.2-7.7,1.9-12.8,1.9h-8.4v21.2c0,1.4-0.6,2.6-1.7,3.7c-1.2,1.1-2.7,1.6-4.7,1.6c-2,0-3.7-0.6-4.9-1.9
		c-1.2-1.3-1.9-2.6-1.9-4V159.8z M70.5,165.7v24.7h8.4c2.5,0,4.6-0.3,6.4-0.9c1.8-0.6,3.3-1.4,4.5-2.4c1.2-1,2-2.1,2.6-3.4
		c0.6-1.3,0.8-2.6,0.8-4v-2.6c0-3.2-1.1-6-3.4-8.2c-2.3-2.2-5.9-3.3-10.9-3.3H70.5z"/>
	<path d="M119.3,182.7c0-4.1,0.6-8,1.7-11.6c1.1-3.6,2.9-6.7,5.2-9.3c2.3-2.6,5.3-4.7,8.9-6.2c3.6-1.5,7.8-2.3,12.7-2.3
		c5,0,9.2,0.8,12.8,2.3c3.6,1.5,6.5,3.6,8.9,6.2c2.4,2.6,4.1,5.7,5.2,9.3c1.1,3.6,1.7,7.4,1.7,11.6v15.8c0,3.5-0.4,6.8-1.2,9.9
		c-0.8,3.1-2.1,5.9-3.7,8.4c-1.7,2.5-3.8,4.6-6.3,6.4c-2.6,1.8-5.6,3-9,3.8c0,2.9,0.5,5.1,1.6,6.6c1.1,1.5,3.3,2.2,6.6,2.2
		c1.1,0,2.3-0.1,3.4-0.4c1.1-0.3,2.2-0.4,3.2-0.5c1-0.1,1.9,0.1,2.7,0.5c0.8,0.4,1.4,1.2,1.9,2.6c0.5,1.4,0.5,2.6,0.1,3.7
		c-0.4,1.1-1.1,2.1-2.1,2.9c-1.1,0.8-2.4,1.5-3.9,1.9c-1.5,0.5-3.3,0.7-5.1,0.7c-7,0-12.3-1.7-15.9-5c-3.6-3.3-5.4-8.2-5.6-14.7
		c-4.1-0.5-7.6-1.5-10.6-3.2c-3-1.7-5.4-3.8-7.3-6.4c-1.9-2.6-3.3-5.5-4.3-8.8c-0.9-3.3-1.4-6.8-1.4-10.6V182.7z M132.3,198.6
		c0,6.2,1.4,10.6,4.2,13.2c2.8,2.6,6.5,3.9,11.3,3.9c4.9,0,8.7-1.3,11.4-3.9c2.7-2.6,4.1-7,4.1-13.2v-15.9c0-6.2-1.4-10.6-4.1-13.2
		c-2.7-2.6-6.5-3.9-11.4-3.9c-4.7,0-8.5,1.3-11.3,3.9c-2.8,2.6-4.2,7-4.2,13.2V198.6z"/>
	<path d="M192,159.8c0-1.4,0.6-2.6,1.9-3.7c1.2-1.1,2.9-1.6,4.9-1.6h15.9c5,0,9.3,0.5,12.9,1.6c3.5,1.1,6.4,2.5,8.5,4.5
		c2.1,1.9,3.7,4.2,4.7,6.9c1,2.7,1.5,5.7,1.5,9v0.8c0,3.8-0.9,7.1-2.7,9.9c-1.8,2.7-4.9,4.9-9.3,6.6l12.5,25.6
		c0.8,1.1,0.9,2.4,0.3,3.9c-0.6,1.5-1.8,2.8-3.5,3.9c-1.7,0.8-3.3,1-4.9,0.6c-1.6-0.4-2.7-1.2-3.4-2.3l-12.6-27.1
		c-0.6,0.1-1.2,0.1-1.9,0.1s-1.4,0-2.1,0h-9.5v24.4c0,1.4-0.6,2.5-1.7,3.6c-1.2,1-2.7,1.5-4.7,1.5c-2,0-3.7-0.6-4.9-1.8
		c-1.2-1.2-1.9-2.5-1.9-3.8V159.8z M205.2,165.7v21.8h9.5c5.1,0,8.8-0.9,11-2.6c2.2-1.7,3.3-4,3.3-6.7v-2.1c0-3.2-1.1-5.8-3.3-7.6
		c-2.2-1.8-5.9-2.8-11-2.8H205.2z"/>
	<path d="M277.5,227.8c-1.1,0-2.5-0.1-4.2-0.4c-1.7-0.3-3.4-0.7-5.2-1.2c-1.8-0.5-3.6-1.2-5.4-1.9c-1.8-0.8-3.4-1.6-4.8-2.7
		c-1.4-1-2.6-2.2-3.5-3.4c-0.9-1.3-1.4-2.7-1.4-4.3c0-3.5,2-5.3,5.9-5.3c1.3,0.1,2.4,0.4,3.4,1.1c1,0.6,1.9,1.3,2.7,2.1
		c1.3,1.2,3.1,2.3,5.4,3.2c2.3,0.9,4.8,1.4,7.5,1.4c3,0,5.4-0.7,7.1-2c1.7-1.3,2.6-3.4,2.6-6.3c0-2.4-0.8-4.4-2.4-5.9
		c-1.6-1.5-3.7-2.9-6.2-4.1c-2.5-1.2-5.1-2.4-8-3.5s-5.5-2.5-8-4.2c-2.5-1.7-4.5-3.8-6.2-6.3c-1.6-2.5-2.4-5.7-2.4-9.7
		c0-3.2,0.5-6,1.6-8.6c1.1-2.6,2.6-4.8,4.5-6.7c2-1.9,4.4-3.3,7.2-4.3c2.9-1,6.1-1.5,9.7-1.5c3.8,0,7.1,0.5,9.9,1.4
		c2.8,0.9,5.2,2.1,7.1,3.4c1.9,1.4,3.4,2.8,4.3,4.2c1,1.5,1.5,2.7,1.5,3.7c0,1.7-0.4,3.1-1.3,4.2c-0.9,1.1-2.3,1.6-4.3,1.6
		c-1.2,0-2.3-0.3-3.2-0.8c-0.9-0.5-1.8-1.1-2.7-1.8c-0.9-0.8-2.3-1.6-4.2-2.6c-1.9-1-4.4-1.5-7.6-1.5c-2.7,0-4.9,0.7-6.7,2.2
		c-1.7,1.5-2.6,3.6-2.6,6.4c0,2.4,0.8,4.3,2.4,5.8c1.6,1.4,3.6,2.7,6.1,3.8c2.4,1.1,5.1,2.3,8,3.4c2.9,1.1,5.5,2.5,8,4.2
		c2.4,1.7,4.5,3.8,6.1,6.4c1.6,2.6,2.4,5.9,2.4,9.9c0,6.3-2.1,11.3-6.2,15C290.5,226,284.8,227.8,277.5,227.8z"/>
	<path d="M314.9,159.8c0-1.4,0.6-2.6,1.8-3.7c1.2-1.1,2.9-1.6,5-1.6h14.6c5.1,0,9.6,0.8,13.3,2.4c3.8,1.6,6.9,3.8,9.3,6.5
		c2.4,2.7,4.3,6,5.4,9.7c1.2,3.7,1.7,7.7,1.7,11.9v12.5c0,4.1-0.6,7.9-1.7,11.4c-1.2,3.5-3,6.6-5.4,9.3c-2.4,2.6-5.5,4.7-9.3,6.2
		c-3.8,1.5-8.2,2.3-13.3,2.3h-14.6c-2.1,0-3.8-0.5-5-1.6c-1.2-1.1-1.8-2.3-1.8-3.7V159.8z M328.1,166.4v48.3h8.1
		c5.2,0,9.3-1.4,12.2-4.1c2.9-2.7,4.4-6.7,4.4-11.9v-14.9c0-5.5-1.5-9.8-4.4-12.9c-2.9-3.1-7-4.6-12.2-4.6H328.1z"/>
</g>
</svg>
