<?xml version="1.0"?>
<svg xmlns="http://www.w3.org/2000/svg" xmlns:xlink="http://www.w3.org/1999/xlink" xmlns:svgjs="http://svgjs.com/svgjs" version="1.1" width="512" height="512" x="0" y="0" viewBox="0 0 512.001 512.001" style="enable-background:new 0 0 512 512" xml:space="preserve" class=""><g>
<g xmlns="http://www.w3.org/2000/svg">
	<g>
		<path d="M368.394,268.592l-39.62,13.092c-20.561,6.794-42.736-4.365-49.529-24.925c-5.292-16.015,0.311-33.009,12.764-42.951    l-8.549-36.043c-1.084-4.57,1.742-9.153,6.312-10.237c17.155-4.069,16.532-3.922,33.821-8.023l5.065-23.857    c0.396-1.865,0.109-3.808-0.81-5.478l-7.739-14.076l6.88-12.514c1.025-1.864-0.326-4.151-2.454-4.151h-18.884    c-2.126,0-3.48,2.285-2.454,4.151l6.88,12.514l-7.768,14.128c-0.901,1.639-1.196,3.543-0.831,5.376l4.928,24.819    c-2.956-7.582-21.138-54.21-23.586-60.487h-21.508c-2.943,7.398-21.783,54.747-24.801,62.332    c-4.032,10.135-13.62,16.382-23.87,16.692l-0.588,117.176c-0.057,11.169,8.953,20.269,20.122,20.326c0.035,0,0.069,0,0.104,0    c11.122,0,20.166-8.989,20.221-20.123l0.747-148.58c0.011-2.213,1.811-3.999,4.023-3.992c2.212,0.006,4.001,1.801,4.001,4.013    c0.001,48.197,0.009,316.41,0.009,339.957c0,13.403,10.865,24.269,24.269,24.269c13.403,0,24.269-10.865,24.269-24.269    c0-25.945,0-189.248,0-193.985h10.479c0,4.938,0,168.105,0,193.985c0,13.403,10.865,24.269,24.269,24.269    c13.403,0,24.269-10.865,24.269-24.269C368.834,279.259,368.394,268.592,368.394,268.592z" fill="#1f7dcf" data-original="#000000" style="" class=""/>
	</g>
</g>
<g xmlns="http://www.w3.org/2000/svg">
	<g>
		<path d="M176.647,0c-24.663,0-44.656,19.993-44.656,44.656s19.993,44.655,44.656,44.655c0.061,0,0.121-0.004,0.183-0.004    l19.316-48.549c3.594-9.032,10.029-16.081,17.865-20.547C206.034,8.042,192.283,0,176.647,0z" fill="#1f7dcf" data-original="#000000" style="" class=""/>
	</g>
</g>
<g xmlns="http://www.w3.org/2000/svg">
	<g>
		<path d="M242.405,35.973c-11.059-4.4-23.587,0.998-27.986,12.054l-27.597,69.361l-47.412,5.044l29.307-13.065h-19.438    c-30.26,0-54.791,24.531-54.791,54.791c0,8.8,0,316.058,0,323.504c-0.039,13.403,10.797,24.3,24.2,24.338c0.024,0,0.047,0,0.071,0    c13.371,0,24.229-10.82,24.267-24.2l0.53-193.494h9.926l0.014,193.427c0,13.403,10.867,24.268,24.27,24.268    c13.403-0.001,24.268-10.868,24.267-24.272V177.502l-58.063-12.218l60.342-6.421c7.954-0.845,14.784-6.029,17.74-13.46    l32.405-81.445C258.858,52.902,253.461,40.373,242.405,35.973z" fill="#1f7dcf" data-original="#000000" style="" class=""/>
	</g>
</g>
<g xmlns="http://www.w3.org/2000/svg">
	<g>
		<path d="M417.167,147.922c-0.133-26.498-19.583-48.056-46.081-48.056h-24.204c-4.366,11.407-18.346,47.927-22.783,59.521    l8.507-2.018c4.57-1.084,9.153,1.742,10.237,6.312l6.768,28.533l18.784-6.208v-37.633c0-2.15,1.708-3.912,3.856-3.979    c2.149-0.068,3.966,1.583,4.098,3.73c0,0.001,0,0.002,0,0.002c0.112,22.238,0.14,27.731,0.273,54.228    c-6.882,2.274-58.73,20.141-66.552,22.725c-10.562,3.489-16.546,14.978-12.975,25.782c3.536,10.702,15.08,16.512,25.782,12.975    l80.631-27.378c8.396-2.775,14.049-10.639,14.005-19.48C417.478,210.039,417.205,155.371,417.167,147.922z" fill="#1f7dcf" data-original="#000000" style="" class=""/>
	</g>
</g>
<g xmlns="http://www.w3.org/2000/svg">
	<g>
		<circle cx="315.085" cy="44.612" r="42.65" fill="#1f7dcf" data-original="#000000" style="" class=""/>
	</g>
</g>
<g xmlns="http://www.w3.org/2000/svg">
</g>
<g xmlns="http://www.w3.org/2000/svg">
</g>
<g xmlns="http://www.w3.org/2000/svg">
</g>
<g xmlns="http://www.w3.org/2000/svg">
</g>
<g xmlns="http://www.w3.org/2000/svg">
</g>
<g xmlns="http://www.w3.org/2000/svg">
</g>
<g xmlns="http://www.w3.org/2000/svg">
</g>
<g xmlns="http://www.w3.org/2000/svg">
</g>
<g xmlns="http://www.w3.org/2000/svg">
</g>
<g xmlns="http://www.w3.org/2000/svg">
</g>
<g xmlns="http://www.w3.org/2000/svg">
</g>
<g xmlns="http://www.w3.org/2000/svg">
</g>
<g xmlns="http://www.w3.org/2000/svg">
</g>
<g xmlns="http://www.w3.org/2000/svg">
</g>
<g xmlns="http://www.w3.org/2000/svg">
</g>
</g></svg>
