<?xml version="1.0"?>
<svg xmlns="http://www.w3.org/2000/svg" xmlns:xlink="http://www.w3.org/1999/xlink" xmlns:svgjs="http://svgjs.com/svgjs" version="1.1" width="512" height="512" x="0" y="0" viewBox="0 0 511.998 511.998" style="enable-background:new 0 0 512 512" xml:space="preserve" class=""><g>
<g xmlns="http://www.w3.org/2000/svg">
	<g>
		<circle cx="134.522" cy="83.076" r="44.299" fill="#1f7dcf" data-original="#000000" style=""/>
	</g>
</g>
<g xmlns="http://www.w3.org/2000/svg">
	<g>
		<path d="M498.177,268.177H354.268v-73.595c0-3.817-3.094-6.91-6.91-6.91h-32.956c-3.817,0-6.91,3.094-6.91,6.91v29.488h-31.048    c-11.64,0-21.522,8.83-22.745,20.455c-3.442-4.893-9.01-8.213-15.449-8.522l-69.347-3.32l-34.184-57.198l40.454,36.564    l2.531-35.649c0.912-12.846-8.736-24.011-21.579-24.972l-54.088-4.045c-13.134-0.982-24.475,9.08-25.099,22.206L71.41,285.888    c-0.973,20.477,15.383,37.619,35.872,37.619c-21.798,0-35.021,0-53.714,0L31.987,153.107c-1.114-8.797-9.142-15.028-17.946-13.911    c-8.797,1.114-15.027,9.148-13.911,17.946L23.487,341.58c1.016,8.024,7.841,14.039,15.929,14.039h56.926v65.252L58.59,451.689    c-5.191,4.237-5.964,11.88-1.727,17.071c4.237,5.191,11.88,5.964,17.071,1.727l33.85-27.633c0.23,0.013,0.457,0.034,0.69,0.034    c0.234,0,0.46-0.022,0.69-0.034l33.85,27.633c5.195,4.241,12.836,3.461,17.071-1.727c4.237-5.191,3.464-12.834-1.727-17.071    l-37.753-30.818v-65.252h51.816c4.903,0,9.286-2.205,12.231-5.669l-17.342,94.85c-2.393,13.084,6.275,25.631,19.36,28.024    c13.084,2.393,25.631-6.276,28.024-19.36l22.945-125.491c2.271-12.425-5.441-24.494-17.672-27.651l-19.369-5    c-60.804-2.912-40.354-1.932-54.077-2.59c-11.799-0.565-21.454-8.723-24.508-19.494l-21.754-77.161l39.704,66.434    c3.448,5.769,9.554,9.43,16.268,9.751c65.738,3.148,78.111,3.786,80.962,3.854c0.007,11.532,0.011,28.276,0.011,34.662    c0,7.635,6.19,13.823,13.823,13.823h11.345v136.486c0,6.701,5.431,12.132,12.132,12.132s12.133-5.431,12.133-12.132V324.601    h175.923v136.486c0,6.701,5.432,12.132,12.132,12.132c6.7,0,12.132-5.431,12.132-12.132V324.601h11.345    c7.635,0,13.823-6.188,13.823-13.823v-28.777C512,274.367,505.811,268.177,498.177,268.177z" fill="#1f7dcf" data-original="#000000" style=""/>
	</g>
</g>
<g xmlns="http://www.w3.org/2000/svg">
</g>
<g xmlns="http://www.w3.org/2000/svg">
</g>
<g xmlns="http://www.w3.org/2000/svg">
</g>
<g xmlns="http://www.w3.org/2000/svg">
</g>
<g xmlns="http://www.w3.org/2000/svg">
</g>
<g xmlns="http://www.w3.org/2000/svg">
</g>
<g xmlns="http://www.w3.org/2000/svg">
</g>
<g xmlns="http://www.w3.org/2000/svg">
</g>
<g xmlns="http://www.w3.org/2000/svg">
</g>
<g xmlns="http://www.w3.org/2000/svg">
</g>
<g xmlns="http://www.w3.org/2000/svg">
</g>
<g xmlns="http://www.w3.org/2000/svg">
</g>
<g xmlns="http://www.w3.org/2000/svg">
</g>
<g xmlns="http://www.w3.org/2000/svg">
</g>
<g xmlns="http://www.w3.org/2000/svg">
</g>
</g></svg>
