<svg id="Capa_1" enable-background="new 0 0 512.117 512.117" height="512" viewBox="0 0 512.117 512.117" width="512" xmlns="http://www.w3.org/2000/svg"><g><path d="m509.323 353.475c-6.541-14.148-22.562-20.917-37.265-15.746l-22.661 7.97-24.251-21.394c-31.189-27.516-73.84-36.962-112.942-26.706v-21.099l44.602-46.125c2.504-2.589 4.949-5.38 7.267-8.294 2.579-3.242 2.041-7.96-1.201-10.539-3.242-2.578-7.959-2.04-10.539 1.201-2.019 2.538-4.142 4.962-6.311 7.205l-37.95 39.246-16.688-53.005c-5.107-16.221-1.054-34.005 10.577-46.412l26.952-28.749c2.489-2.655 4.636-5.622 6.38-8.819l16.785-30.773c.049-.09.164-.301.505-.328.344-.02.488.163.55.244 21.022 27.192 26.353 62.647 14.258 94.842-1.457 3.878.506 8.202 4.383 9.659 3.878 1.457 8.202-.505 9.659-4.383 13.937-37.099 7.793-77.956-16.433-109.292-3.24-4.191-8.326-6.44-13.607-6.021-5.28.42-9.947 3.447-12.484 8.098l-16.785 30.773c-1.136 2.082-2.534 4.014-4.155 5.744l-2.671 2.849c-.111-4.982-.739-9.862-1.896-14.617-.866-3.561-3.44-6.439-6.886-7.7-3.45-1.262-7.28-.723-10.244 1.441l-25.399 18.542c-21.943 16.02-34.58 40.79-34.669 67.959s12.384 52.021 34.222 68.185l26.775 19.818v25.326c-4.356 1.768-8.64 3.795-12.828 6.092l-65.855 36.112h-4.576c-10.319-9.231-23.5-14.279-37.456-14.279h-93.73c-3.614-6.317-10.407-10.593-18.191-10.593h-57.065c-4.142 0-7.5 3.358-7.5 7.5s3.358 7.5 7.5 7.5h57.068c3.285 0 5.958 2.673 5.958 5.958v22.064c0 4.142 3.358 7.5 7.5 7.5s7.5-3.358 7.5-7.5v-17.429h90.963c11.02 0 21.379 4.291 29.171 12.083 1.406 1.407 3.314 2.197 5.303 2.197h92.58c10.694 0 19.394 8.7 19.394 19.394s-8.7 19.394-19.394 19.394h-75.074c-3.471 0-6.734 1.352-9.186 3.805l-12.91 12.91c-2.929 2.929-2.929 7.678 0 10.606 1.464 1.464 3.384 2.197 5.303 2.197s3.839-.732 5.303-2.197l12.321-12.321h74.242c8.752 0 16.746-3.291 22.823-8.694l150.668-52.989c7.371-2.592 15.396.801 18.673 7.89 3.39 7.333.426 15.986-6.747 19.701l-162.527 84.166c-9.515 4.927-20.208 7.532-30.922 7.532h-13.106c-4.142 0-7.5 3.358-7.5 7.5s3.358 7.5 7.5 7.5h13.106c13.104 0 26.182-3.186 37.819-9.211l162.527-84.166c14.318-7.42 20.232-24.689 13.467-39.322zm-258.117-164.182c.073-22.345 10.466-42.717 28.514-55.893l20.211-14.755c.895 7.449.22 15.318-1.978 23.476l-6.934 7.397c-15.331 16.353-20.673 39.794-13.941 61.175l13.544 43.019-11.269-8.341c-17.961-13.293-28.22-33.733-28.147-56.078zm52.337 155.483h-53.825l41.87-22.959c39.86-21.858 89.546-16.337 123.635 13.737l17.963 15.847-95.768 33.681c.335-1.922.519-3.896.519-5.912 0-18.965-15.429-34.394-34.394-34.394z"/><path d="m250.443 471.168h-94.82c-16.097 0-31.679-5.785-43.877-16.288l-4.413-3.8c-1.361-1.172-3.098-1.817-4.894-1.817h-16.913v-54.354c0-4.142-3.358-7.5-7.5-7.5s-7.5 3.358-7.5 7.5v59.96c0 3.285-2.673 5.958-5.958 5.958h-57.068c-4.142 0-7.5 3.358-7.5 7.5s3.358 7.5 7.5 7.5h57.068c8.177 0 15.256-4.718 18.708-11.564h16.378l2.303 1.983c14.919 12.847 33.978 19.922 53.665 19.922h94.82c4.142 0 7.5-3.358 7.5-7.5s-3.357-7.5-7.499-7.5z"/><path d="m200.758 301.466c1.425 1.254 3.193 1.871 4.953 1.871 2.08 0 4.15-.86 5.632-2.544 2.737-3.109 2.436-7.848-.673-10.585-30.722-27.048-48.342-66.009-48.342-106.893s17.62-79.845 48.342-106.893c3.109-2.737 3.41-7.477.673-10.585-2.738-3.109-7.476-3.41-10.585-.673-33.955 29.895-53.43 72.96-53.43 118.152s19.475 88.255 53.43 118.15z"/><path d="m399.47 289.555c-3.09 2.758-3.359 7.5-.601 10.59 1.482 1.66 3.535 2.505 5.598 2.505 1.777 0 3.562-.628 4.992-1.905 33.44-29.85 52.619-72.652 52.619-117.432 0-44.779-19.179-87.582-52.619-117.432-3.09-2.758-7.832-2.49-10.59.601-2.758 3.09-2.489 7.832.601 10.59 30.255 27.007 47.608 65.731 47.608 106.242s-17.352 79.235-47.608 106.241z"/><path d="m282.725 42.628c16.456-2.549 33.559-2.193 49.901 1.055.494.098.985.146 1.47.146 3.505 0 6.639-2.47 7.348-6.039.808-4.063-1.831-8.011-5.894-8.818-18.055-3.589-36.941-3.983-55.122-1.167-4.093.634-6.897 4.466-6.264 8.56s4.463 6.896 8.561 6.263z"/></g></svg>