<?xml version="1.0" encoding="utf-8"?>
<!-- Generator: Adobe Illustrator 23.0.6, SVG Export Plug-In . SVG Version: 6.00 Build 0)  -->
<svg version="1.1" id="Capa_1" xmlns="http://www.w3.org/2000/svg" xmlns:xlink="http://www.w3.org/1999/xlink" x="0px" y="0px"
	 viewBox="0 0 200 80" style="enable-background:new 0 0 200 80;" xml:space="preserve">
<style type="text/css">
	.st0{fill:#0083AD;}
	.st1{fill:#FFDA00;}
	.st2{fill:#00B451;}
</style>
<g>
	<g>
		<g>
			<path class="st0" d="M76.5,64.8h0.8c0,0.7,0.6,1.2,1.4,1.2c0.8,0,1.3-0.4,1.3-0.9c0-1.5-3.4-0.6-3.4-2.7c0-0.9,0.9-1.6,2-1.6
				c1.3,0,2.1,0.8,2.1,1.8h-0.9c0-0.6-0.5-1-1.2-1c-0.7,0-1.2,0.3-1.2,0.8c0,1.4,3.5,0.4,3.5,2.7c0,1-0.9,1.7-2.1,1.7
				C77.4,66.7,76.5,65.9,76.5,64.8z"/>
			<path class="st0" d="M85.7,62.6v4.1h-0.8v-0.8c-0.3,0.6-0.9,0.9-1.6,0.9c-1.1,0-2.1-0.9-2.1-2.1c0-1.2,0.9-2.1,2.1-2.1
				c0.7,0,1.3,0.3,1.6,0.9v-0.8H85.7z M84.9,64.6c0-0.8-0.6-1.4-1.4-1.4c-0.8,0-1.4,0.6-1.4,1.4c0,0.8,0.6,1.4,1.4,1.4
				C84.3,66,84.9,65.4,84.9,64.6z"/>
			<path class="st0" d="M90.5,64.3v2.3h-0.8v-2.3c0-0.7-0.5-1.2-1.2-1.2c-0.7,0-1.2,0.5-1.2,1.2v2.3h-0.8v-4.1h0.8v0.7
				c0.3-0.5,0.7-0.8,1.3-0.8C89.8,62.5,90.5,63.2,90.5,64.3z"/>
			<path class="st0" d="M92.3,63.3v1.9c0,0.6,0.3,0.8,0.8,0.8c0.1,0,0.2,0,0.3,0v0.7c-0.1,0-0.3,0.1-0.5,0.1c-0.9,0-1.5-0.5-1.5-1.5
				v-1.9h-0.8v-0.7h0.8v-1.1h0.8v1.1h1.1v0.7H92.3z"/>
			<path class="st0" d="M98,62.6v4.1h-0.8v-0.8c-0.3,0.6-0.9,0.9-1.6,0.9c-1.1,0-2.1-0.9-2.1-2.1c0-1.2,0.9-2.1,2.1-2.1
				c0.7,0,1.3,0.3,1.6,0.9v-0.8H98z M97.2,64.6c0-0.8-0.6-1.4-1.4-1.4c-0.8,0-1.4,0.6-1.4,1.4c0,0.8,0.6,1.4,1.4,1.4
				C96.6,66,97.2,65.4,97.2,64.6z"/>
			<path class="st0" d="M104.1,60.8v0.8h-2.6v1.7h2.4V64h-2.4v2.6h-0.8v-5.9H104.1z"/>
			<path class="st0" d="M108.3,64.8h-3.4c0.1,0.7,0.6,1.2,1.4,1.2c0.6,0,1.1-0.3,1.2-0.7h0.8c-0.2,0.9-1,1.4-2,1.4
				c-1.2,0-2.2-0.9-2.2-2.1c0-1.2,0.9-2.1,2.2-2.1c1.1,0,2,0.8,2,2C108.4,64.6,108.3,64.8,108.3,64.8z M107.5,64.2
				c-0.1-0.6-0.5-1-1.2-1c-0.7,0-1.2,0.4-1.3,1H107.5z"/>
			<path class="st0" d="M114.9,60.8v5.9h-0.8v-0.8c-0.3,0.6-0.9,0.9-1.6,0.9c-1.1,0-2.1-0.9-2.1-2.1c0-1.2,0.9-2.1,2.1-2.1
				c0.7,0,1.3,0.3,1.6,0.9v-2.6H114.9z M114.1,64.6c0-0.8-0.6-1.4-1.4-1.4c-0.8,0-1.4,0.6-1.4,1.4c0,0.8,0.6,1.4,1.4,1.4
				C113.5,66,114.1,65.4,114.1,64.6z"/>
			<path class="st0" d="M119.6,64.8h-3.4c0.1,0.7,0.6,1.2,1.4,1.2c0.6,0,1.1-0.3,1.2-0.7h0.8c-0.2,0.9-1,1.4-2,1.4
				c-1.2,0-2.2-0.9-2.2-2.1c0-1.2,0.9-2.1,2.2-2.1c1.1,0,2,0.8,2,2C119.6,64.6,119.6,64.8,119.6,64.8z M118.8,64.2
				c-0.1-0.6-0.5-1-1.2-1c-0.7,0-1.2,0.4-1.3,1H118.8z"/>
			<path class="st0" d="M125.6,65.4h-2.7l-0.5,1.3h-0.9l2.4-5.9h0.7l2.4,5.9h-0.9L125.6,65.4z M125.3,64.6l-1-2.6l-1,2.6H125.3z"/>
			<path class="st0" d="M131.4,64.3v2.3h-0.8v-2.3c0-0.7-0.5-1.2-1.2-1.2c-0.7,0-1.2,0.5-1.2,1.2v2.3h-0.8v-4.1h0.8v0.7
				c0.3-0.5,0.7-0.8,1.3-0.8C130.7,62.5,131.4,63.2,131.4,64.3z"/>
			<path class="st0" d="M133.2,63.3v1.9c0,0.6,0.3,0.8,0.8,0.8c0.1,0,0.2,0,0.3,0v0.7c-0.1,0-0.3,0.1-0.5,0.1
				c-0.9,0-1.5-0.5-1.5-1.5v-1.9h-0.8v-0.7h0.8v-1.1h0.8v1.1h1.1v0.7H133.2z"/>
			<path class="st0" d="M135.8,61.2c0,0.3-0.3,0.5-0.5,0.5c-0.3,0-0.5-0.2-0.5-0.5c0-0.3,0.2-0.5,0.5-0.5
				C135.6,60.7,135.8,61,135.8,61.2z M135.7,62.6v4.1h-0.8v-4.1H135.7z"/>
			<path class="st0" d="M140.7,64.6c0,1.2-1,2.1-2.2,2.1c-1.2,0-2.2-0.9-2.2-2.1c0-1.2,1-2.1,2.2-2.1
				C139.7,62.5,140.7,63.4,140.7,64.6z M137.1,64.6c0,0.8,0.6,1.4,1.4,1.4c0.8,0,1.4-0.6,1.4-1.4c0-0.8-0.6-1.4-1.4-1.4
				C137.7,63.2,137.1,63.8,137.1,64.6z"/>
			<path class="st0" d="M145.4,62.6v5.6h-0.8v-2.3c-0.3,0.6-0.9,0.9-1.6,0.9c-1.1,0-2.1-0.9-2.1-2.1c0-1.2,0.9-2.1,2.1-2.1
				c0.7,0,1.3,0.3,1.6,0.9v-0.8H145.4z M144.6,64.6c0-0.8-0.6-1.4-1.4-1.4c-0.8,0-1.4,0.6-1.4,1.4c0,0.8,0.6,1.4,1.4,1.4
				C144,66,144.6,65.4,144.6,64.6z"/>
			<path class="st0" d="M150.2,62.6v4.1h-0.8v-0.7c-0.3,0.5-0.7,0.8-1.4,0.8c-1.1,0-1.8-0.7-1.8-1.8v-2.3h0.8v2.3
				c0,0.7,0.5,1.2,1.1,1.2c0.7,0,1.2-0.5,1.2-1.2v-2.3H150.2z"/>
			<path class="st0" d="M151.9,61.2c0,0.3-0.3,0.5-0.5,0.5c-0.3,0-0.5-0.2-0.5-0.5c0-0.3,0.2-0.5,0.5-0.5
				C151.7,60.7,151.9,61,151.9,61.2z M151.8,62.6v4.1H151v-4.1H151.8z"/>
			<path class="st0" d="M156.9,62.6v4.1h-0.8v-0.8c-0.3,0.6-0.9,0.9-1.6,0.9c-1.1,0-2.1-0.9-2.1-2.1c0-1.2,0.9-2.1,2.1-2.1
				c0.7,0,1.3,0.3,1.6,0.9v-0.8H156.9z M156.1,64.6c0-0.8-0.6-1.4-1.4-1.4c-0.8,0-1.4,0.6-1.4,1.4c0,0.8,0.6,1.4,1.4,1.4
				C155.5,66,156.1,65.4,156.1,64.6z"/>
		</g>
		<g>
			<path class="st0" d="M80.1,22.5v0.8h-2.6v1.6h2.4v0.8h-2.4v1.9h2.6v0.8h-3.5v-5.9H80.1z"/>
			<path class="st0" d="M87.5,25.9v2.5h-0.8V26c0-0.7-0.4-1.1-1-1.1c-0.5,0-1.1,0.3-1.1,1.1v2.3h-0.8V26c0-0.7-0.4-1.1-1.1-1.1
				c-0.5,0-1.1,0.3-1.1,1.1v2.3h-0.8v-4.1h0.8v0.6c0.3-0.5,0.8-0.7,1.3-0.7c0.7,0,1.1,0.3,1.4,0.8c0.2-0.5,0.8-0.8,1.4-0.8
				C86.8,24.2,87.5,24.8,87.5,25.9z"/>
			<path class="st0" d="M92.9,26.3c0,1.2-0.9,2.1-2.1,2.1c-0.7,0-1.3-0.3-1.6-0.9v2.3h-0.8v-5.6h0.8v0.8c0.3-0.6,0.9-0.9,1.6-0.9
				C92,24.2,92.9,25.1,92.9,26.3z M92.2,26.3c0-0.8-0.6-1.4-1.4-1.4c-0.8,0-1.4,0.6-1.4,1.4c0,0.8,0.6,1.4,1.4,1.4
				C91.5,27.7,92.2,27.1,92.2,26.3z"/>
			<path class="st0" d="M96,24.2v0.7c-0.1,0-0.3-0.1-0.4-0.1c-0.6,0-1.1,0.5-1.1,1.2v2.3h-0.8v-4.1h0.8v0.6c0.3-0.4,0.7-0.7,1.2-0.7
				C95.8,24.2,95.9,24.2,96,24.2z"/>
			<path class="st0" d="M100.2,26.5h-3.4c0.1,0.7,0.6,1.2,1.4,1.2c0.6,0,1.1-0.3,1.2-0.7h0.8c-0.2,0.9-1,1.4-2,1.4
				c-1.2,0-2.2-0.9-2.2-2.1c0-1.2,0.9-2.1,2.2-2.1c1.1,0,2,0.8,2,2C100.3,26.3,100.2,26.4,100.2,26.5z M99.4,25.8
				c-0.1-0.6-0.5-1-1.2-1c-0.7,0-1.2,0.4-1.3,1H99.4z"/>
			<path class="st0" d="M100.7,27.1h0.8c0.1,0.4,0.4,0.7,1,0.7c0.5,0,0.9-0.2,0.9-0.6c0-1-2.5-0.2-2.5-1.8c0-0.7,0.6-1.2,1.5-1.2
				c0.8,0,1.6,0.4,1.7,1.2h-0.8c-0.1-0.3-0.4-0.6-0.9-0.6c-0.4,0-0.8,0.2-0.8,0.5c0,1,2.5,0.2,2.5,1.8c0,0.7-0.7,1.3-1.6,1.3
				C101.5,28.4,100.8,27.9,100.7,27.1z"/>
			<path class="st0" d="M109,24.2v4.1h-0.8v-0.8c-0.3,0.6-0.9,0.9-1.6,0.9c-1.1,0-2.1-0.9-2.1-2.1c0-1.2,0.9-2.1,2.1-2.1
				c0.7,0,1.3,0.3,1.6,0.9v-0.8H109z M108.2,26.3c0-0.8-0.6-1.4-1.4-1.4c-0.8,0-1.4,0.6-1.4,1.4c0,0.8,0.6,1.4,1.4,1.4
				C107.6,27.7,108.2,27.1,108.2,26.3z"/>
			<path class="st0" d="M116,22.5v5.9h-0.8v-0.8c-0.3,0.6-0.9,0.9-1.6,0.9c-1.1,0-2.1-0.9-2.1-2.1c0-1.2,0.9-2.1,2.1-2.1
				c0.7,0,1.3,0.3,1.6,0.9v-2.6H116z M115.2,26.3c0-0.8-0.6-1.4-1.4-1.4c-0.8,0-1.4,0.6-1.4,1.4c0,0.8,0.6,1.4,1.4,1.4
				C114.6,27.7,115.2,27.1,115.2,26.3z"/>
			<path class="st0" d="M120.8,26.5h-3.4c0.1,0.7,0.6,1.2,1.4,1.2c0.6,0,1.1-0.3,1.2-0.7h0.8c-0.2,0.9-1,1.4-2,1.4
				c-1.2,0-2.2-0.9-2.2-2.1c0-1.2,0.9-2.1,2.2-2.1c1.1,0,2,0.8,2,2C120.8,26.3,120.8,26.4,120.8,26.5z M120,25.8
				c-0.1-0.6-0.5-1-1.2-1c-0.7,0-1.2,0.4-1.3,1H120z"/>
		</g>
		<g>
			<path class="st1" d="M189.6,68.1h-22.3c-2.4,0-4.4-2-4.4-4.4v0c0-2.4,2-4.4,4.4-4.4h22.3c2.4,0,4.4,2,4.4,4.4v0
				C194,66.2,192,68.1,189.6,68.1z"/>
		</g>
		<g>
			<path class="st0" d="M165.9,64.6h0.5c0,0.5,0.4,0.8,0.9,0.8c0.5,0,0.9-0.3,0.9-0.6c0-1-2.3-0.4-2.3-1.8c0-0.6,0.6-1.1,1.3-1.1
				c0.9,0,1.4,0.5,1.4,1.2h-0.6c0-0.4-0.3-0.7-0.8-0.7c-0.5,0-0.8,0.2-0.8,0.6c0,0.9,2.3,0.3,2.3,1.8c0,0.7-0.6,1.1-1.4,1.1
				C166.5,65.9,165.9,65.3,165.9,64.6z"/>
			<path class="st0" d="M169.2,65.5c0-0.2,0.2-0.4,0.4-0.4c0.2,0,0.4,0.2,0.4,0.4c0,0.2-0.2,0.4-0.4,0.4
				C169.3,65.9,169.2,65.7,169.2,65.5z"/>
			<path class="st0" d="M172.9,65h-1.8l-0.4,0.9h-0.6l1.6-3.9h0.5l1.6,3.9h-0.6L172.9,65z M172.7,64.5l-0.7-1.7l-0.7,1.7H172.7z"/>
			<path class="st0" d="M174.1,65.5c0-0.2,0.2-0.4,0.4-0.4c0.2,0,0.4,0.2,0.4,0.4c0,0.2-0.2,0.4-0.4,0.4
				C174.3,65.9,174.1,65.7,174.1,65.5z"/>
			<path class="st0" d="M175.3,64.6h0.5c0,0.5,0.4,0.8,0.9,0.8c0.5,0,0.9-0.3,0.9-0.6c0-1-2.3-0.4-2.3-1.8c0-0.6,0.6-1.1,1.3-1.1
				c0.9,0,1.4,0.5,1.4,1.2h-0.6c0-0.4-0.3-0.7-0.8-0.7c-0.5,0-0.8,0.2-0.8,0.6c0,0.9,2.3,0.3,2.3,1.8c0,0.7-0.6,1.1-1.4,1.1
				C175.9,65.9,175.3,65.3,175.3,64.6z"/>
			<path class="st0" d="M182.2,61.9v0.5h-1.8v1.1h1.6V64h-1.6v1.3h1.8v0.5h-2.3v-3.9H182.2z"/>
			<path class="st0" d="M182.6,65.5c0-0.2,0.2-0.4,0.4-0.4c0.2,0,0.4,0.2,0.4,0.4c0,0.2-0.2,0.4-0.4,0.4
				C182.8,65.9,182.6,65.7,182.6,65.5z"/>
			<path class="st0" d="M183.9,64.6h0.5c0,0.5,0.4,0.8,0.9,0.8c0.5,0,0.9-0.3,0.9-0.6c0-1-2.3-0.4-2.3-1.8c0-0.6,0.6-1.1,1.3-1.1
				c0.9,0,1.4,0.5,1.4,1.2h-0.6c0-0.4-0.3-0.7-0.8-0.7c-0.5,0-0.8,0.2-0.8,0.6c0,0.9,2.3,0.3,2.3,1.8c0,0.7-0.6,1.1-1.4,1.1
				C184.5,65.9,183.9,65.3,183.9,64.6z"/>
			<path class="st0" d="M187.2,65.5c0-0.2,0.2-0.4,0.4-0.4c0.2,0,0.4,0.2,0.4,0.4c0,0.2-0.2,0.4-0.4,0.4
				C187.3,65.9,187.2,65.7,187.2,65.5z"/>
			<path class="st0" d="M191.3,63.1c0,0.7-0.5,1.2-1.2,1.2h-1v1.6h-0.6v-3.9h1.6C190.8,61.9,191.3,62.4,191.3,63.1z M190.8,63.1
				c0-0.4-0.3-0.7-0.7-0.7h-1v1.3h1C190.5,63.7,190.8,63.4,190.8,63.1z"/>
		</g>
		<g>
			<path class="st0" d="M76.5,39.2h2.8c0,0.9,0.7,1.4,1.7,1.4c0.9,0,1.6-0.4,1.6-1c0-1.7-6-0.5-6-4.7c0-2,1.8-3.5,4.1-3.5
				c3,0,4.3,1.9,4.3,4h-3c0-0.8-0.5-1.3-1.5-1.3c-0.8,0-1.3,0.3-1.3,0.9c0,1.6,6.1,0.4,6.1,4.7c0,2.1-1.9,3.6-4.4,3.6
				C78.4,43.3,76.5,41.6,76.5,39.2z"/>
			<path class="st0" d="M94.6,31.6v2.7h-4.6v1.6h4.1v2.7h-4.1v1.9h4.6v2.7h-7.4V31.6H94.6z"/>
			<path class="st0" d="M102.8,43.1l-2.5-4.2h-1v4.2h-2.9V31.6h4.6c2,0,3.8,1.6,3.8,3.6c0,1.4-0.6,2.5-1.7,3.1l3,4.7H102.8z
				 M99.3,36.5h1.5c0.7,0,1.2-0.5,1.2-1.1c0-0.6-0.5-1.1-1.2-1.1h-1.5V36.5z"/>
			<path class="st0" d="M108.6,31.6l2.6,6.9l2.5-6.9h3l-4.4,11.5h-2.3l-4.4-11.5H108.6z"/>
			<path class="st0" d="M120.9,31.6v11.5H118V31.6H120.9z"/>
			<path class="st0" d="M122.6,37.4c0-3.4,2.6-5.9,6.1-5.9c2.8,0,5.4,1.8,5.7,4.3h-3.2c-0.3-0.9-1.3-1.6-2.5-1.6
				c-1.8,0-3.1,1.4-3.1,3.2c0,1.8,1.3,3.2,3.1,3.2c1.2,0,2.3-0.7,2.5-1.7h3.2c-0.4,2.6-2.8,4.4-5.7,4.4
				C125.2,43.3,122.6,40.7,122.6,37.4z"/>
			<path class="st0" d="M139.1,31.6v11.5h-2.9V31.6H139.1z"/>
			<path class="st0" d="M153,37.4c0,3.4-2.6,5.9-6.1,5.9c-3.5,0-6.1-2.5-6.1-5.9c0-3.4,2.6-5.9,6.1-5.9C150.4,31.5,153,34,153,37.4z
				 M143.8,37.4c0,1.8,1.3,3.2,3.1,3.2c1.8,0,3.1-1.4,3.1-3.2c0-1.8-1.3-3.2-3.1-3.2C145.1,34.2,143.8,35.5,143.8,37.4z"/>
			<path class="st0" d="M154.1,39.2h2.8c0,0.9,0.7,1.4,1.7,1.4c0.9,0,1.6-0.4,1.6-1c0-1.7-6-0.5-6-4.7c0-2,1.8-3.5,4.1-3.5
				c3,0,4.3,1.9,4.3,4h-3c0-0.8-0.5-1.3-1.5-1.3c-0.8,0-1.3,0.3-1.3,0.9c0,1.6,6.1,0.4,6.1,4.7c0,2.1-1.9,3.6-4.4,3.6
				C156,43.3,154.1,41.6,154.1,39.2z"/>
		</g>
		<g>
			<g>
				<path class="st0" d="M85.2,49.9c0,2.2-1.7,3.8-4.2,3.8h-1.6v3.9h-2.9V46.2h4.5C83.5,46.2,85.2,47.8,85.2,49.9z M82.4,49.9
					c0-0.7-0.5-1.1-1.3-1.1h-1.6v2.3h1.6C81.8,51.1,82.4,50.6,82.4,49.9z"/>
				<path class="st0" d="M86.7,53.2v-7h2.9v7c0,1.1,0.8,1.9,1.9,1.9c1.1,0,1.9-0.8,1.9-1.9v-7h2.9v7c0,2.7-2,4.6-4.7,4.6
					C88.8,57.8,86.7,55.8,86.7,53.2z"/>
				<path class="st0" d="M98.1,46.2h4.5c2.1,0,3.8,1.4,3.8,3.1c0,1-0.6,2-1.5,2.3c1.2,0.3,2,1.4,2,2.8c0,1.9-1.7,3.3-3.8,3.3h-5.1
					V46.2z M102.5,50.7c0.6,0,1-0.4,1-0.9c0-0.5-0.5-0.9-1-0.9H101v1.9H102.5z M102.9,55c0.6,0,1.1-0.5,1.1-1.1
					c0-0.6-0.5-1.1-1.1-1.1h-2V55H102.9z"/>
				<path class="st0" d="M111.3,46.2V55h5.2v2.7h-8.1V46.2H111.3z"/>
				<path class="st0" d="M120.9,46.2v11.5H118V46.2H120.9z"/>
				<path class="st0" d="M122.5,51.9c0-3.4,2.6-5.9,6.1-5.9c2.8,0,5.4,1.8,5.7,4.3H131c-0.3-0.9-1.3-1.6-2.5-1.6
					c-1.8,0-3.1,1.4-3.1,3.2c0,1.8,1.3,3.2,3.1,3.2c1.2,0,2.3-0.7,2.5-1.7h3.2c-0.4,2.6-2.8,4.4-5.7,4.4
					C125,57.8,122.5,55.3,122.5,51.9z"/>
				<path class="st0" d="M147.5,51.9c0,3.4-2.6,5.9-6.1,5.9c-3.5,0-6.1-2.5-6.1-5.9c0-3.4,2.6-5.9,6.1-5.9
					C144.9,46,147.5,48.5,147.5,51.9z M138.3,51.9c0,1.8,1.3,3.2,3.1,3.2c1.8,0,3.1-1.4,3.1-3.2c0-1.8-1.3-3.2-3.1-3.2
					C139.7,48.7,138.3,50.1,138.3,51.9z"/>
				<path class="st0" d="M148.5,53.8h2.8c0,0.9,0.7,1.4,1.7,1.4c0.9,0,1.6-0.4,1.6-1c0-1.7-6-0.5-6-4.7c0-2,1.8-3.5,4.1-3.5
					c3,0,4.3,1.9,4.3,4h-3c0-0.8-0.5-1.3-1.5-1.3c-0.8,0-1.3,0.3-1.3,0.9c0,1.6,6.1,0.4,6.1,4.7c0,2.1-1.9,3.6-4.4,3.6
					C150.4,57.8,148.5,56.1,148.5,53.8z"/>
			</g>
			<g>
				<path class="st0" d="M91.7,47.1h-1.5l1.4-2.4h1.9L91.7,47.1z"/>
			</g>
		</g>
	</g>
	<g>
		<path class="st1" d="M37,5.2c-4.4,0-8,3.6-8,8c0,4.4,3.6,8,8,8c4.4,0,8-3.6,8-8C45,8.8,41.4,5.2,37,5.2z"/>
		<path class="st1" d="M37,30L19.2,19.8c-0.7-0.4-1.4-0.5-2.2-0.5c-1,0-1.9,0.3-2.7,0.9c0,0-0.1,0.1-0.1,0.1c0,0-0.1,0.1-0.1,0.1
			c-0.3,0.3-0.5,0.7-0.5,1.2c0,0.9,0.7,1.6,1.6,1.6c0.4,0,0.7-0.1,1-0.4c0,0,0,0,0,0c0.2-0.2,0.5-0.3,0.8-0.3c0.2,0,0.4,0.1,0.6,0.2
			l17.6,10.2c0,0,0.1,0.1,0.1,0.2l0,23.1c0,0.9,0.7,1.6,1.6,1.6c0.9,0,1.6-0.7,1.6-1.6l0-23.1C38.7,31.8,38,30.7,37,30z"/>
		<path class="st1" d="M60,20.4c0,0-0.1-0.1-0.1-0.1c0,0-0.1-0.1-0.1-0.1c-0.8-0.6-1.7-0.9-2.7-0.9c-0.8,0-1.5,0.2-2.2,0.6L38.9,29
			l0.4,0.3c0.6,0.5,1,1.2,1.1,1.9l0.1,0.5l15.9-9.2c0.2-0.1,0.4-0.2,0.6-0.2c0.3,0,0.6,0.1,0.8,0.3c0,0,0,0,0,0
			c0.3,0.2,0.6,0.4,1,0.4c0.9,0,1.6-0.7,1.6-1.6C60.5,21.1,60.3,20.7,60,20.4z"/>
		<g>
			<path class="st0" d="M46,50.5c-1.4,0-2.9-0.4-4.2-1.2l-0.3-0.2c-0.8-0.5-1-1.5-0.5-2.2c0.5-0.8,1.5-1,2.2-0.5l0.3,0.2
				c1.5,0.9,3.4,0.9,4.9,0l0.5-0.3c2.6-1.6,5.8-1.6,8.4,0l0.3,0.2c0.8,0.5,1,1.5,0.5,2.2c-0.5,0.8-1.5,1-2.2,0.5L55.7,49
				c-1.5-0.9-3.4-0.9-4.9,0l-0.5,0.3C48.9,50.1,47.5,50.5,46,50.5z"/>
		</g>
		<g>
			<path class="st0" d="M28.1,50.5c-1.4,0-2.9-0.4-4.2-1.2L23.3,49c-1.5-0.9-3.4-0.9-4.9,0l-0.3,0.2c-0.8,0.5-1.8,0.2-2.2-0.5
				c-0.5-0.8-0.2-1.8,0.5-2.2l0.3-0.2c2.6-1.6,5.8-1.6,8.4,0l0.5,0.3c1.5,0.9,3.4,0.9,4.9,0l0.3-0.2c0.8-0.5,1.8-0.2,2.2,0.5
				c0.5,0.8,0.2,1.8-0.5,2.2l-0.3,0.2C30.9,50.1,29.5,50.5,28.1,50.5z"/>
		</g>
		<g>
			<path class="st0" d="M46,58.6c-1.4,0-2.9-0.4-4.2-1.2l-0.3-0.2c-0.8-0.5-1-1.5-0.5-2.2c0.5-0.8,1.5-1,2.2-0.5l0.3,0.2
				c1.5,0.9,3.4,0.9,4.9,0l0.5-0.3c2.6-1.6,5.8-1.6,8.4,0l0.3,0.2c0.8,0.5,1,1.5,0.5,2.2c-0.5,0.8-1.5,1-2.2,0.5l-0.3-0.2
				c-1.5-0.9-3.4-0.9-4.9,0l-0.5,0.3C48.9,58.2,47.5,58.6,46,58.6z"/>
		</g>
		<g>
			<path class="st0" d="M28.1,58.6c-1.4,0-2.9-0.4-4.2-1.2l-0.5-0.3c-1.5-0.9-3.4-0.9-4.9,0l-0.3,0.2c-0.8,0.5-1.8,0.2-2.2-0.5
				c-0.5-0.8-0.2-1.8,0.5-2.2l0.3-0.2c2.6-1.6,5.8-1.6,8.4,0l0.5,0.3c1.5,0.9,3.4,0.9,4.9,0l0.3-0.2c0.8-0.5,1.8-0.2,2.2,0.5
				c0.5,0.8,0.2,1.8-0.5,2.2l-0.3,0.2C30.9,58.2,29.5,58.6,28.1,58.6z"/>
		</g>
		<g>
			<path class="st2" d="M46,66.7c-1.4,0-2.9-0.4-4.2-1.2L39.5,64c-0.7-0.5-1.6-0.7-2.5-0.7s-1.7,0.2-2.5,0.7l-2.3,1.5
				c-2.6,1.6-5.8,1.6-8.4,0l-0.5-0.3c-0.8-0.5-1-1.5-0.5-2.2c0.5-0.8,1.5-1,2.2-0.5l0.5,0.3c1.5,0.9,3.4,0.9,4.9,0l2.3-1.5
				c1.3-0.8,2.7-1.2,4.2-1.2c1.5,0,2.9,0.4,4.2,1.2l2.3,1.5c1.5,0.9,3.4,0.9,4.9,0l0.5-0.3c0.8-0.5,1.8-0.2,2.2,0.5
				c0.5,0.8,0.2,1.8-0.5,2.2l-0.5,0.3C48.9,66.3,47.5,66.7,46,66.7z"/>
		</g>
		<g>
			<path class="st2" d="M31.4,73.8c-0.5,0-1.1-0.3-1.4-0.8c-0.5-0.8-0.2-1.8,0.5-2.2l2.3-1.5c1.3-0.8,2.7-1.2,4.2-1.2
				c1.5,0,2.9,0.4,4.2,1.2l2.3,1.5c0.8,0.5,1,1.5,0.5,2.2c-0.5,0.8-1.5,1-2.2,0.5l-2.3-1.5c-0.7-0.5-1.6-0.7-2.5-0.7
				c-0.9,0-1.7,0.2-2.5,0.7l-2.3,1.5C32,73.7,31.7,73.8,31.4,73.8z"/>
		</g>
	</g>
</g>
</svg>
