<?xml version="1.0" encoding="utf-8"?>
<!-- Generator: Adobe Illustrator 23.0.0, SVG Export Plug-In . SVG Version: 6.00 Build 0)  -->
<svg version="1.1" id="Capa_1" xmlns="http://www.w3.org/2000/svg" xmlns:xlink="http://www.w3.org/1999/xlink" x="0px" y="0px"
	 viewBox="0 0 300 300" style="enable-background:new 0 0 300 300;" xml:space="preserve">
<style type="text/css">
	.st0{fill:#FFFFFF;}
	.st1{fill:none;stroke:#FFFFFF;stroke-width:12;stroke-linecap:round;stroke-linejoin:round;stroke-miterlimit:10;}
</style>
<path class="st0" d="M144.8,42.1c5.5,0,11,2.9,13.9,8.6l19,38.6c4.3,8.8,12.8,14.9,22.4,16.3l42.6,6.2c12.7,1.8,17.8,17.4,8.6,26.4
	l-30.8,30c-7,6.8-10.2,16.7-8.6,26.4l7.3,42.4c1.7,10-6.2,18.1-15.2,18.1c-2.4,0-4.8-0.6-7.2-1.8l-38.1-20
	c-4.3-2.3-9.1-3.4-13.9-3.4c-4.8,0-9.5,1.1-13.9,3.4l-38.1,20c-2.4,1.2-4.8,1.8-7.2,1.8c-9,0-17-8.1-15.2-18.1l7.3-42.4
	c1.6-9.6-1.6-19.6-8.6-26.4l-30.8-30c-9.2-9-4.1-24.6,8.6-26.4l42.6-6.2c9.7-1.4,18.1-7.5,22.4-16.3l19-38.6
	C133.7,45,139.2,42.1,144.8,42.1 M144.8,26.2c-12.1,0-22.8,6.7-28.2,17.5l-19,38.6c-2,4.1-5.9,6.9-10.4,7.6l-42.6,6.2
	c-11.9,1.7-21.6,9.9-25.4,21.4c-3.7,11.5-0.7,23.8,7.9,32.2l30.8,30c3.3,3.2,4.8,7.8,4,12.3l-7.3,42.4c-1.6,9.2,0.9,18.5,6.9,25.5
	c6,7.2,14.8,11.3,24.1,11.3c5,0,10.1-1.3,14.6-3.6l38.1-20c2-1,4.2-1.6,6.4-1.6c2.2,0,4.5,0.5,6.4,1.6l38.1,20
	c4.6,2.4,9.5,3.6,14.6,3.6c9.3,0,18-4.1,24.1-11.3c5.9-7.1,8.5-16.4,6.9-25.5l-7.3-42.4c-0.8-4.5,0.7-9.1,4-12.3l30.8-30
	c8.6-8.4,11.7-20.8,7.9-32.2c-3.7-11.5-13.4-19.6-25.4-21.4l-42.6-6.2c-4.5-0.7-8.4-3.5-10.4-7.6l-19.1-38.6
	C167.6,32.9,156.8,26.2,144.8,26.2L144.8,26.2z"/>
<path class="st1" d="M143.3,83.6c0,0,9.3,20.2,20.5,40"/>
</svg>
