<?xml version="1.0" encoding="utf-8"?>
<!-- Generator: Adobe Illustrator 23.0.0, SVG Export Plug-In . SVG Version: 6.00 Build 0)  -->
<svg version="1.1" id="Capa_1" xmlns="http://www.w3.org/2000/svg" xmlns:xlink="http://www.w3.org/1999/xlink" x="0px" y="0px"
	 viewBox="0 0 15.9 15.9" style="enable-background:new 0 0 15.9 15.9;" xml:space="preserve">
<style type="text/css">
	.st0{fill:#F4F4F4;}
</style>
<g>
	<g>
		<path class="st0" d="M5.2,7.8l2.6,3.2c0,0,0.2,0.3,0.4,0c0.3-0.3,2.5-3.3,2.5-3.3s0.4-0.4-0.1-0.4c-0.5,0-1.4,0-1.4,0s0-0.2,0-0.6
			c0-1.1,0-3.2,0-4c0,0,0-0.2-0.2-0.2c-0.2,0-1.7,0-2.1,0c-0.3,0-0.3,0.2-0.3,0.2c0,0.8,0,2.8,0,4c0,0.4,0,0.6,0,0.6s-1,0-1.5,0
			C4.8,7.4,5.2,7.8,5.2,7.8z"/>
		<path class="st0" d="M14.9,7.2v2.4c0,1.5-1.3,2.8-2.8,2.8H3.8C2.2,12.4,1,11.1,1,9.6V7.2H0v2.4c0,2.1,1.7,3.8,3.8,3.8h8.4
			c2.1,0,3.8-1.7,3.8-3.8V7.2H14.9z"/>
	</g>
</g>
</svg>
