<?xml version="1.0" encoding="utf-8"?>
<!-- Generator: Adobe Illustrator 23.0.0, SVG Export Plug-In . SVG Version: 6.00 Build 0)  -->
<svg version="1.1" id="Capa_1" xmlns="http://www.w3.org/2000/svg" xmlns:xlink="http://www.w3.org/1999/xlink" x="0px" y="0px"
	 viewBox="0 0 300 300" style="enable-background:new 0 0 300 300;" xml:space="preserve">
<style type="text/css">
	.st0{fill:#FFFFFF;}
	.st1{fill:none;stroke:#FFFFFF;stroke-width:12;stroke-linecap:round;stroke-linejoin:round;stroke-miterlimit:10;}
</style>
<path class="st0" d="M235.6,61.6c14.4,0,26,11.6,26,26v119.6c0,14.4-11.6,26-26,26H61.8c-14.4,0-26-11.6-26-26V87.6
	c0-14.4,11.6-26,26-26H235.6 M235.6,46.4H61.8c-22.7,0-41.1,18.5-41.1,41.1v119.6c0,22.7,18.5,41.1,41.1,41.1h173.8
	c22.7,0,41.1-18.5,41.1-41.1V87.6C276.8,64.9,258.3,46.4,235.6,46.4L235.6,46.4z"/>
<path class="st1" d="M254.1,66.9l-86,86.3c-11.1,11.1-29,11.1-40.1,0L41.4,66.6"/>
<line class="st1" x1="176" y1="151" x2="256.8" y2="231.5"/>
<line class="st1" x1="43.3" y1="229.9" x2="122.4" y2="151.2"/>
<line class="st1" x1="194.8" y1="83" x2="159.4" y2="83"/>
</svg>
