<?xml version="1.0" encoding="utf-8"?>
<!-- Generator: Adobe Illustrator 23.0.0, SVG Export Plug-In . SVG Version: 6.00 Build 0)  -->
<svg version="1.1" id="Capa_1" xmlns="http://www.w3.org/2000/svg" xmlns:xlink="http://www.w3.org/1999/xlink" x="0px" y="0px"
	 viewBox="0 0 300 300" style="enable-background:new 0 0 300 300;" xml:space="preserve">
<style type="text/css">
	.st0{fill:#FFFFFF;stroke:#FFFFFF;stroke-width:10;stroke-miterlimit:10;}
</style>
<path class="st0" d="M171.6,81.7l-6.3-18c-2.3-6.7-7.9-11.5-14.8-12.8c-7-1.3-13.9,1.1-18.5,6.4l-42.3,49l-46.8,16.3
	c-22.6,7.9-34.6,32.7-26.7,55.3c6.6,18.9,25.1,30.4,44.2,29l5.8,7l36.5,49.1c4.5,6.1,11.2,10,18.7,11.1c4.6,0.7,9.1,0.2,13.4-1.3
	c2.7-0.9,5.3-2.3,7.7-4.1c6.1-4.5,10-11.2,11.1-18.7c1.1-7.5-0.8-15-5.4-21.1L118,188.4l0.5-0.2l63.4,12.1c3.5,0.7,6.9,0.4,10.1-0.7
	c3.2-1.1,6.1-3,8.4-5.7c4.6-5.4,6-12.5,3.7-19.2l-6.2-17.9c13.4-11.9,19.8-30.7,14.1-47C206.2,93.5,189.5,82.7,171.6,81.7z
	 M144.5,231.8c3.8,5.1,5.4,11.4,4.5,17.6c-0.9,6.3-4.2,11.8-9.3,15.6c-5.1,3.8-11.4,5.4-17.6,4.5c-6.3-0.9-11.9-4.2-15.6-9.3
	l-36.6-49.2c0,0-0.1-0.1-0.1-0.1l-4-4.8c1.9-0.4,3.8-0.9,5.7-1.6l41.9-14.6L144.5,231.8z M115,184.6l-4.5,1.6L70,200.3
	c-2.5,0.9-5.1,1.5-7.6,1.8c-1.9,0.3-3.8,0.4-5.7,0.3c-15.8-0.2-30.6-10.2-36.1-26c-7-20.2,3.7-42.4,23.9-49.4l45.1-15.7L115,184.6
	L115,184.6z M166.7,81.7l1.6,4.5l24.1,69.1l1.6,4.5l5.7,16.3c1.8,5.1,0.7,10.6-2.8,14.7c-3.5,4.1-8.8,5.9-14.1,4.9l-63-12
	l-26.1-74.9l41.9-48.5c3.5-4.1,8.8-5.9,14.1-4.9c5.3,1,9.5,4.7,11.3,9.8L166.7,81.7z M196.1,152.1l-22.9-65.7
	c15.4,1.5,29.4,10.9,34.3,24.9S207.2,141.4,196.1,152.1z"/>
<path class="st0" d="M201.4,55.3c-0.6,0.2-1.2,0.2-1.8-0.1c-1.1-0.6-1.6-1.9-1.1-3.1l14-28.9c0.6-1.1,1.9-1.6,3.1-1.1
	c1.1,0.6,1.6,1.9,1.1,3.1l-14,28.9C202.4,54.7,201.9,55.1,201.4,55.3z"/>
<path class="st0" d="M273.1,91.3l-30.3,10.5c-1.2,0.4-2.5-0.2-2.9-1.4c-0.4-1.2,0.2-2.5,1.4-2.9L271.6,87c1.2-0.4,2.5,0.2,2.9,1.4
	C274.9,89.6,274.3,90.9,273.1,91.3z"/>
<path class="st0" d="M268.1,178c-0.6,0.2-1.2,0.2-1.8-0.1L237.5,164c-1.1-0.6-1.6-1.9-1.1-3.1c0.6-1.1,1.9-1.6,3.1-1.1l28.9,13.9
	c1.1,0.6,1.6,1.9,1.1,3.1C269.1,177.4,268.7,177.8,268.1,178z"/>
<path class="st0" d="M76.3,146.6l-25.7,8.9c-1.2,0.4-2.5-0.2-2.9-1.4c-0.4-1.2,0.2-2.5,1.4-2.9l25.7-8.9c1.2-0.4,2.5,0.2,2.9,1.4
	C78.1,144.9,77.5,146.2,76.3,146.6z"/>
<path class="st0" d="M120.5,115.7c-0.7,0.2-1.5,0.1-2.2-0.4c-1-0.8-1.2-2.2-0.4-3.2l16.8-21.4c0.8-1,2.2-1.2,3.2-0.4
	c1,0.8,1.2,2.2,0.4,3.2L121.6,115C121.3,115.3,120.9,115.6,120.5,115.7z"/>
</svg>
